<svg width="133" height="151" viewBox="0 0 133 151" fill="none" xmlns="http://www.w3.org/2000/svg">
<path d="M111.5 6C103.93 6 100.17 6.43 100.17 14V40.5C100.14 41.91 99.67 43.658 98 45C97.44 45.45 94.24 46.87 91.5 47C91.04 45 91.44 47 91.41 47H91.04C90.03 46.98 86.079 46.72 83.999 45C81.679 43.08 80.149 40.42 79.999 38.63V20C79.999 12.43 74.57 10 67 10C59.43 10 56.999 14.43 56.999 22V25C56.999 25.39 57.73 34.44 53.5 36.71C51.87 37.58 48.01 37.48 47.5 37.5C46.99 37.52 40.06 37.85 38 36.71C35.26 35.19 33.91 33.31 34 29.5V14C33.99 6.42 29.07 0 21.5 0C13.93 0 10 6.43 10 14V117C10 124.57 13.93 127 21.5 127C29.07 127 30.5 124.57 30.5 117V72.43C30.5 55 36.5 53.5 37 53C38 52 48.41 52.53 49 52.5C52.21 52.31 55.501 56 55.5 57.5C57 61.5 56.999 71.83 56.999 72.43V96.5C56.999 104.07 59.43 108 67 108C74.57 108 77.5 104.07 77.5 96.5V66.5C77.5 63 82.67 60 91.5 60C99.42 60 103.95 67.94 104 70V140.5C104 148.07 106.3 151 113.87 151C121.44 151 122.5 145.07 122.5 137.5V14C122.5 6.43 119.07 6 111.5 6Z" fill="url(#paint0_radial_3309_1775)"/>
<path d="M93 119C93 115.134 96.134 112 100 112H126C129.866 112 133 115.134 133 119V122C133 125.866 129.866 129 126 129H100C96.134 129 93 125.866 93 122V119Z" fill="#295070"/>
<path d="M0 86C0 82.134 3.13401 79 7 79H33C36.866 79 40 82.134 40 86V89C40 92.866 36.866 96 33 96H7C3.13401 96 0 92.866 0 89V86Z" fill="#383964"/>
<defs>
<radialGradient id="paint0_radial_3309_1775" cx="0" cy="0" r="1" gradientUnits="userSpaceOnUse" gradientTransform="translate(-37.9138 122.93) scale(298.618 252.59)">
<stop stop-color="#43285B"/>
<stop offset="0.84" stop-color="#1D647B"/>
</radialGradient>
</defs>
</svg>
